<svg id="Layer_1" data-name="Layer 1" xmlns="http://www.w3.org/2000/svg" xmlns:xlink="http://www.w3.org/1999/xlink" viewBox="0 0 543.47 127.44"><defs><style>.cls-1,.cls-7{fill:none;}.cls-2{clip-path:url(#clip-path);}.cls-3{clip-path:url(#clip-path-2);}.cls-4{opacity:0.38;}.cls-5{clip-path:url(#clip-path-3);}.cls-6{fill:#a4a6a9;}.cls-7{stroke:#a4a6a9;stroke-width:0.25px;}.cls-8{fill:#f26c5c;}</style><clipPath id="clip-path" transform="translate(-19.36 -38.58)"><rect class="cls-1" x="19.36" y="38.4" width="543.64" height="127.8"/></clipPath><clipPath id="clip-path-2" transform="translate(-19.36 -38.58)"><rect class="cls-1" x="19.36" y="38.4" width="543.64" height="127.8"/></clipPath><clipPath id="clip-path-3" transform="translate(-19.36 -38.58)"><rect class="cls-1" x="396.98" y="1" width="211.43" height="177.83"/></clipPath></defs><title>Logo&amp;amp;Name</title><g class="cls-2"><g class="cls-3"><g class="cls-4"><g class="cls-5"><path class="cls-6" d="M503.57,122.43c1,7.74,21.94,25.31,34.62,42.15,4.17,5.53,8.46-7.39,11.44-16.91,8.72-27.86-1.53-52.31-32.14-41.94-48.56,16.45-60.91-48.38-63.11-63.55-0.56-3.85,8.23-1,13.16,1.06,7.93,3.32,40.49,11,30.11,41.14l1.78,0.35c10.38-30.19-19.61-37.65-33.94-43.54-7-2.88-13.62-4.32-12.84,2,1.89,15.21,14.72,80.47,63.28,64,30.61-10.37,40.69,13.61,32,41.47-3,9.53-6.15,19.3-9.86,14.13-11.7-16.31-30.6-32.54-32.42-42.17Z" transform="translate(-19.36 -38.58)"/><path class="cls-7" d="M503.57,122.43c1,7.74,21.94,25.31,34.62,42.15,4.17,5.53,8.46-7.39,11.44-16.91,8.72-27.86-1.53-52.31-32.14-41.94-48.56,16.45-60.91-48.38-63.11-63.55-0.56-3.85,8.23-1,13.16,1.06,7.93,3.32,40.49,11,30.11,41.14l1.78,0.35c10.38-30.19-19.61-37.65-33.94-43.54-7-2.88-13.62-4.32-12.84,2,1.89,15.21,14.72,80.47,63.28,64,30.61-10.37,40.69,13.61,32,41.47-3,9.53-6.15,19.3-9.86,14.13-11.7-16.31-30.6-32.54-32.42-42.17Z" transform="translate(-19.36 -38.58)"/><path class="cls-6" d="M469.66,160.92C509,135.56,496.47,76.24,522,59.67c10.66-6.91,28.54,1.88,35.93-5.06,5.7-5.34,3.77,9.23-.22,17.91-8.66,18.82-23.41,27.31-45.27,21.7l-1.26,1c26.18,8.79,42.89-5.61,49.09-25.53,2.79-9,4.16-23.13-1.54-17.79-7.4,6.94-24.84-1-35.93,5.06-27,14.87-14.3,75-52.36,101.25Z" transform="translate(-19.36 -38.58)"/><path class="cls-7" d="M469.66,160.92C509,135.56,496.47,76.24,522,59.67c10.66-6.91,28.54,1.88,35.93-5.06,5.7-5.34,3.77,9.23-.22,17.91-8.66,18.82-23.41,27.31-45.27,21.7l-1.26,1c26.18,8.79,42.89-5.61,49.09-25.53,2.79-9,4.16-23.13-1.54-17.79-7.4,6.94-24.84-1-35.93,5.06-27,14.87-14.3,75-52.36,101.25Z" transform="translate(-19.36 -38.58)"/></g></g><path class="cls-8" d="M83.69,134.26c8.64,0,13.85-9,13.85-16.82v-2.07H94.93c-7.11,0-21.32.18-21.32,10.35,0,4.23,3.33,8.55,10.08,8.55M95,110.51h2.52V110c0-9.44-3.42-12.78-11.7-12.78-2.25,0-8.82.63-8.82,4V104H71.18V99.72c0-6.3,10.8-7.64,14.76-7.64,14.3,0,17.72,7.64,17.72,17.36v21.68a1.76,1.76,0,0,0,2,2h3.78v5.31h-6.21c-3.87,0-5.4-1.71-5.4-5.4,0-2,.09-3.33.09-3.33H97.72a16,16,0,0,1-15,9.81c-7.56,0-15.38-4.41-15.38-13.41,0-15,19.88-15.57,27.71-15.57" transform="translate(-19.36 -38.58)"/><path class="cls-8" d="M119.13,100.44a1.8,1.8,0,0,0-2-2h-3.78V93.15h6.3c3.78,0,5.49,1.62,5.49,5v2.07a29.22,29.22,0,0,1-.18,3.24h0.18c2.25-6.12,9.36-11.42,16.37-11.42,8.37,0,12.68,3.87,14,11.33h0.18a18.4,18.4,0,0,1,16.65-11.33c11,0,15,6.39,15,17.54v21.5a1.76,1.76,0,0,0,2,2h3.78v5.31h-6.39c-3.87,0-5.49-1.62-5.49-5.48V111.14c0-7.38-1.53-13.49-9.8-13.49-6.84,0-12.51,6.12-14.31,12.77a21.61,21.61,0,0,0-.81,6.57V138.4h-6.12V111.14c0-6.84-1-13.49-9.53-13.49-7.38,0-12.87,6.39-14.76,13.31a22.19,22.19,0,0,0-.72,6V138.4h-6.12v-38Z" transform="translate(-19.36 -38.58)"/><path class="cls-8" d="M203.16,75.16h5.94V82.9h-5.94V75.16Zm0.18,25.28a1.8,1.8,0,0,0-2-2h-3.78V93.15H204c3.87,0,5.49,1.62,5.49,5.49v32.48a1.76,1.76,0,0,0,2,2h3.78v5.31h-6.39c-3.87,0-5.49-1.62-5.49-5.48V100.44Z" transform="translate(-19.36 -38.58)"/><path class="cls-8" d="M303,75.16H309V82.9H303V75.16Zm0.18,25.28a1.8,1.8,0,0,0-2-2h-3.78V93.15h6.39c3.87,0,5.49,1.62,5.49,5.49v32.48a1.76,1.76,0,0,0,2,2h3.78v5.31h-6.39c-3.87,0-5.49-1.62-5.49-5.48V100.44Z" transform="translate(-19.36 -38.58)"/><path class="cls-8" d="M356.1,111.14c-0.36-9.36-6.12-13.95-12.77-13.95-7.47,0-14,4.86-15.57,13.95H356.1ZM343.41,92.07c12.5,0,19,9.62,19,20.87,0,1.08-.18,3.06-0.18,3.06H327.49c0.18,11.42,8.19,18,17.54,18a20.16,20.16,0,0,0,13.58-5.58l3,4.59a25.68,25.68,0,0,1-16.83,6.48c-13.4,0-23.66-9.72-23.66-23.66,0-14.84,10.17-23.75,22.31-23.75" transform="translate(-19.36 -38.58)"/><path class="cls-8" d="M374.63,100.44a1.8,1.8,0,0,0-2-2h-3.78V93.15h6.3c3.78,0,5.49,1.53,5.49,5.13v3.06a32.42,32.42,0,0,1-.18,3.42h0.18c2.16-6.84,7.2-12.05,14.3-12.05a12.31,12.31,0,0,1,2.43.27v6a15.59,15.59,0,0,0-2.25-.18c-6.39,0-11.16,5-13.13,11.69a29.82,29.82,0,0,0-1.26,8.82V138.4h-6.12v-38Z" transform="translate(-19.36 -38.58)"/><path class="cls-8" d="M425,92.07c5.13,0,16.1,2.16,16.1,9.62v4h-5.76v-2.61c0-3.78-6.57-5.58-10.35-5.58-9.72,0-17.54,7.29-17.54,18.26,0,11.16,8.19,18.08,17.72,18.08a20,20,0,0,0,14.57-6.39l2.88,4.59a23.89,23.89,0,0,1-17.72,7.38c-13.49,0-23.75-9.63-23.75-23.66,0-13.85,10.35-23.75,23.84-23.75" transform="translate(-19.36 -38.58)"/><path class="cls-8" d="M455,151.8c4,0,6.66-3.24,8.37-7.38l2.7-6.21-15.92-37.69A2.91,2.91,0,0,0,447,98.46h-0.9V93.15h2.79c4,0,5.31.9,6.93,4.95l11.61,28.25c0.9,2.25,1.62,4.86,1.62,4.86h0.18a41.59,41.59,0,0,1,1.53-4.86L481.87,98.1c1.53-4,2.88-4.95,7-4.95h2.79v5.31h-0.9a2.85,2.85,0,0,0-3.15,2.07L468.1,147.84c-2.34,5.76-6.93,9.45-13,9.45a13.18,13.18,0,0,1-9.8-4.41l2.88-4.5c0,0.09,2.88,3.42,6.75,3.42" transform="translate(-19.36 -38.58)"/><path class="cls-8" d="M211.95,78.78a5.61,5.61,0,1,1-5.61-5.61,5.61,5.61,0,0,1,5.61,5.61" transform="translate(-19.36 -38.58)"/><path class="cls-8" d="M311.41,78.78a5.61,5.61,0,1,1-5.61-5.61,5.6,5.6,0,0,1,5.61,5.61" transform="translate(-19.36 -38.58)"/><path class="cls-8" d="M23.31,143.94s6.53,7.91,16.73,7.91c7.08,0,12.78-4.6,12.78-11.49,0-16-31.91-12.78-31.91-32.83,0-9,7.82-16.55,19.77-16.55,6.25,0,17.47,2.67,17.47,11.13v4.6H52.09v-3c0-3.86-5.33-6.71-11.31-6.71-8.37,0-13.24,4.87-13.24,10.39,0,15,31.91,11.31,31.91,32.65,0,9.66-7.45,17.84-19.59,17.84a27.41,27.41,0,0,1-20.5-9.2Z" transform="translate(-19.36 -38.58)"/><path class="cls-8" d="M269.48,126.72c8.55,0,14.16-5.24,14.16-14.07S278,98.86,269.57,98.86H255.41v27.86h14.07ZM249,98.86h-6v-5.7H270.3c11.5,0,20,7.54,20,19.49s-8.46,19.77-20,19.77h-14.9V157.8H249V98.86Z" transform="translate(-19.36 -38.58)"/></g></g></svg>